<svg width="551" height="433" viewBox="0 0 551 433" fill="none" xmlns="http://www.w3.org/2000/svg">
<g clip-path="url(#clip0_34_67)">
<path d="M24.436 420.649C41.6106 433.213 63.8676 433.844 85.3815 432.3C88.3856 432.085 91.3684 431.832 94.3237 431.56C94.3415 431.555 94.365 431.557 94.3831 431.552C94.5251 431.538 94.6674 431.525 94.8033 431.517C95.4133 431.459 96.0235 431.401 96.6278 431.342L96.485 431.619L96.037 432.477C96.198 432.19 96.3589 431.909 96.5199 431.621C96.5673 431.535 96.6204 431.449 96.6674 431.363C102.241 421.514 107.768 411.304 109.178 400.058C110.636 388.385 106.54 375.168 96.423 369.43C95.0962 368.68 93.6911 368.083 92.2338 367.649C91.6288 367.462 91.0155 367.311 90.3953 367.177C86.6011 366.321 82.6509 366.507 78.951 367.716C75.2511 368.924 71.9349 371.112 69.3435 374.053C66.7522 376.995 64.9791 380.584 64.2066 384.452C63.4341 388.321 63.6901 392.328 64.9483 396.062C56.371 387.131 57.9711 372.642 60.9298 360.533C63.8943 348.424 67.483 334.95 61.4536 324.074C58.1019 318.02 52.2078 314.264 45.5932 312.751C45.3902 312.706 45.1876 312.662 44.9843 312.623C37.1031 311.002 28.9099 312.46 22.041 316.706C9.39324 324.799 2.89719 340.145 0.788853 355.177C-2.60808 379.366 4.90938 406.363 24.436 420.649Z" fill="#226FE3"/>
<path d="M29.981 381.872C30.4795 387.208 31.7417 392.441 33.7276 397.407C35.5578 401.801 38.0247 405.893 41.0465 409.547C47.2192 417.087 55.3814 422.756 64.2456 426.533C71.0235 429.352 78.125 431.29 85.3814 432.3C88.3855 432.085 91.3684 431.832 94.3236 431.56C94.3414 431.555 94.3649 431.557 94.383 431.552C94.525 431.538 94.6674 431.525 94.8033 431.517C95.4132 431.459 96.0235 431.401 96.6277 431.342L96.485 431.619L96.037 432.477C96.198 432.19 96.3588 431.909 96.5198 431.621C96.5672 431.535 96.6203 431.449 96.6673 431.363C91.2273 425.859 87.1656 419.111 84.8226 411.685C82.4796 404.258 81.9236 396.37 83.2012 388.68C84.5381 381.045 87.633 373.839 92.2337 367.649C91.6287 367.462 91.0155 367.311 90.3953 367.177C88.6468 369.604 87.1131 372.184 85.812 374.885C81.1437 384.52 79.6544 395.426 81.5645 405.987C83.3402 415.544 87.7643 424.389 94.3172 431.482C93.7435 431.441 93.1641 431.393 92.5971 431.341C81.8581 430.417 71.1409 428.072 61.4004 423.27C53.0745 419.265 45.8462 413.242 40.3521 405.732C34.4529 397.471 31.8535 387.533 31.4069 377.433C30.9335 366.62 32.3151 355.617 34.7452 345.101C37.2266 334.321 40.9978 323.889 45.9746 314.039C46.0859 313.815 46.1084 313.557 46.0374 313.317C45.9663 313.078 45.8073 312.875 45.5931 312.751C45.4146 312.629 45.1958 312.583 44.9842 312.623C44.8807 312.651 44.7847 312.702 44.7034 312.773C44.6221 312.844 44.5575 312.932 44.5146 313.032C43.9006 314.249 43.2981 315.467 42.7184 316.698C37.8911 326.953 34.3371 337.778 32.1381 348.924C30.0033 359.676 28.8638 370.923 29.981 381.872Z" fill="#97E6F8"/>
<path d="M539.95 372.274H255.9C252.971 372.271 250.162 371.088 248.09 368.984C246.019 366.881 244.854 364.028 244.85 361.053V11.221C244.854 8.24606 246.019 5.39389 248.09 3.29026C250.162 1.18664 252.971 0.00334906 255.9 0H539.95C542.88 0.00334906 545.688 1.18664 547.76 3.29026C549.831 5.39389 550.997 8.24606 551 11.221V361.053C550.997 364.028 549.831 366.881 547.76 368.984C545.688 371.088 542.88 372.271 539.95 372.274ZM255.9 1.32012C253.315 1.32309 250.837 2.36717 249.009 4.22331C247.181 6.07945 246.153 8.59606 246.15 11.221V361.053C246.153 363.678 247.181 366.195 249.009 368.051C250.837 369.907 253.315 370.951 255.9 370.954H539.95C542.535 370.951 545.013 369.907 546.841 368.051C548.669 366.195 549.697 363.678 549.7 361.053V11.221C549.697 8.59606 548.669 6.07945 546.841 4.22331C545.013 2.36717 542.535 1.32309 539.95 1.32012H255.9Z" fill="#68A6FF"/>
<path d="M550.35 27.4521H245.5V28.7723H550.35V27.4521Z" fill="#68A6FF"/>
<path d="M260.45 19.8018C263.322 19.8018 265.65 17.4377 265.65 14.5213C265.65 11.605 263.322 9.24085 260.45 9.24085C257.578 9.24085 255.25 11.605 255.25 14.5213C255.25 17.4377 257.578 19.8018 260.45 19.8018Z" fill="#68A6FF"/>
<path d="M276.7 19.8018C279.572 19.8018 281.9 17.4377 281.9 14.5213C281.9 11.605 279.572 9.24085 276.7 9.24085C273.828 9.24085 271.5 11.605 271.5 14.5213C271.5 17.4377 273.828 19.8018 276.7 19.8018Z" fill="#68A6FF"/>
<path d="M292.95 19.8018C295.822 19.8018 298.15 17.4377 298.15 14.5213C298.15 11.605 295.822 9.24085 292.95 9.24085C290.078 9.24085 287.75 11.605 287.75 14.5213C287.75 17.4377 290.078 19.8018 292.95 19.8018Z" fill="#68A6FF"/>
<path d="M495.919 79.8674H293.119C290.878 79.8674 288.729 78.9633 287.144 77.3541C285.559 75.7449 284.669 73.5624 284.669 71.2866C284.669 69.0108 285.559 66.8283 287.144 65.2191C288.729 63.6098 290.878 62.7058 293.119 62.7058H495.919C498.16 62.7058 500.309 63.6098 501.894 65.2191C503.479 66.8283 504.369 69.0108 504.369 71.2866C504.369 73.5624 503.479 75.7449 501.894 77.3541C500.309 78.9633 498.16 79.8674 495.919 79.8674ZM293.119 64.0259C291.223 64.0259 289.404 64.7909 288.063 66.1525C286.722 67.5142 285.969 69.3609 285.969 71.2866C285.969 73.2122 286.722 75.059 288.063 76.4206C289.404 77.7823 291.223 78.5473 293.119 78.5473H495.919C497.815 78.5473 499.634 77.7823 500.975 76.4206C502.316 75.059 503.069 73.2122 503.069 71.2866C503.069 69.3609 502.316 67.5142 500.975 66.1525C499.634 64.7909 497.815 64.0259 495.919 64.0259H293.119Z" fill="#68A6FF"/>
<path d="M369 200.659H289.05C286.121 200.655 283.312 199.472 281.24 197.368C279.169 195.265 278.003 192.412 278 189.438V122.771C278.003 119.796 279.169 116.944 281.24 114.841C283.312 112.737 286.121 111.554 289.05 111.55H369C371.93 111.554 374.738 112.737 376.81 114.841C378.882 116.944 380.047 119.796 380.05 122.771V189.438C380.047 192.412 378.882 195.265 376.81 197.368C374.738 199.472 371.93 200.655 369 200.659ZM289.05 112.87C286.465 112.873 283.987 113.917 282.159 115.774C280.331 117.63 279.303 120.146 279.3 122.771V189.438C279.303 192.062 280.331 194.579 282.159 196.435C283.987 198.291 286.465 199.335 289.05 199.338H369C371.585 199.335 374.063 198.291 375.891 196.435C377.719 194.579 378.747 192.062 378.75 189.438V122.771C378.747 120.146 377.719 117.63 375.891 115.774C374.063 113.917 371.585 112.873 369 112.87H289.05Z" fill="#68A6FF"/>
<path d="M506.8 114.851H426.85C421.106 114.851 416.45 119.579 416.45 125.412V192.078C416.45 197.91 421.106 202.639 426.85 202.639H506.8C512.544 202.639 517.2 197.91 517.2 192.078V125.412C517.2 119.579 512.544 114.851 506.8 114.851Z" fill="#68A6FF"/>
<path d="M369 324.75H289.05C286.121 324.747 283.312 323.563 281.24 321.46C279.169 319.356 278.003 316.504 278 313.529V246.863C278.003 243.888 279.169 241.036 281.24 238.932C283.312 236.828 286.121 235.645 289.05 235.642H369C371.93 235.645 374.738 236.828 376.81 238.932C378.882 241.036 380.047 243.888 380.05 246.863V313.529C380.047 316.504 378.882 319.356 376.81 321.46C374.738 323.563 371.93 324.747 369 324.75ZM289.05 236.962C286.465 236.965 283.987 238.009 282.159 239.865C280.331 241.721 279.303 244.238 279.3 246.863V313.529C279.303 316.154 280.331 318.671 282.159 320.527C283.987 322.383 286.465 323.427 289.05 323.43H369C371.585 323.427 374.063 322.383 375.891 320.527C377.719 318.671 378.747 316.154 378.75 313.529V246.863C378.747 244.238 377.719 241.721 375.891 239.865C374.063 238.009 371.585 236.965 369 236.962H289.05Z" fill="#68A6FF"/>
<path d="M506.8 238.942H426.85C421.106 238.942 416.45 243.67 416.45 249.503V316.169C416.45 322.002 421.106 326.73 426.85 326.73H506.8C512.544 326.73 517.2 322.002 517.2 316.169V249.503C517.2 243.67 512.544 238.942 506.8 238.942Z" fill="#68A6FF"/>
<path d="M309.13 184.535C309.115 184.535 309.101 184.535 309.087 184.534L299.993 184.192C299.709 184.183 299.438 184.071 299.23 183.875C299.022 183.68 298.891 183.414 298.86 183.128C298.234 177.457 295.659 148.559 306.449 136.549C307.976 134.815 309.864 133.447 311.977 132.546C314.089 131.645 316.372 131.233 318.661 131.34C318.754 131.346 318.847 131.326 318.929 131.282C319.012 131.238 319.081 131.172 319.13 131.091L321.331 127.578C321.452 127.388 321.622 127.236 321.824 127.139C322.025 127.042 322.249 127.004 322.47 127.03C324.235 127.246 333.232 128.269 337.015 127.156C337.238 127.09 337.476 127.091 337.698 127.161C337.92 127.23 338.118 127.364 338.265 127.547L341.156 131.135C341.206 131.2 341.27 131.252 341.343 131.286C341.417 131.321 341.497 131.337 341.578 131.333C343.048 131.303 348.204 131.593 352.716 136.717C357.602 142.267 362.644 154.787 358.919 182.919C358.88 183.208 358.74 183.473 358.524 183.665C358.308 183.857 358.03 183.964 357.743 183.965H350.581C350.297 183.964 350.022 183.859 349.807 183.67C349.592 183.481 349.451 183.22 349.409 182.935L347.069 166.542C347.05 166.407 346.982 166.284 346.878 166.198C346.774 166.113 346.642 166.069 346.508 166.078C346.374 166.086 346.248 166.145 346.155 166.244C346.062 166.342 346.009 166.472 346.006 166.608L345.845 174.305C345.84 174.533 345.771 174.755 345.646 174.945C345.522 175.136 345.347 175.286 345.141 175.379C342.588 176.519 329.097 181.865 314.187 175.169C313.985 175.077 313.812 174.93 313.688 174.744C313.564 174.558 313.493 174.341 313.483 174.117L313.19 167.124C313.184 166.987 313.128 166.858 313.032 166.762C312.937 166.665 312.809 166.609 312.674 166.604C312.54 166.6 312.409 166.647 312.307 166.736C312.205 166.825 312.14 166.95 312.125 167.086L310.307 183.467C310.273 183.76 310.135 184.031 309.918 184.228C309.701 184.425 309.421 184.534 309.13 184.535Z" fill="#68A6FF"/>
<path d="M346.748 305.304H346.741L311.107 305.075C310.848 305.073 310.599 304.975 310.406 304.799C310.213 304.624 310.089 304.383 310.059 304.122L306.474 273.183C306.452 272.983 306.36 272.798 306.215 272.662C306.069 272.526 305.88 272.448 305.683 272.442C302.854 272.348 296.123 271.693 294.729 267.648C293.486 264.045 296.884 258.731 304.826 251.852C304.962 251.735 305.123 251.653 305.297 251.616C305.471 251.578 305.652 251.586 305.822 251.637C305.993 251.689 306.147 251.783 306.273 251.911C306.398 252.039 306.49 252.197 306.54 252.37L310.663 266.816C310.713 266.989 310.817 267.142 310.959 267.251C311.101 267.36 311.273 267.42 311.451 267.422L345.238 267.652C345.415 267.654 345.587 267.598 345.73 267.492C345.874 267.386 345.979 267.236 346.032 267.064L350.619 252.24C350.67 252.075 350.76 251.924 350.881 251.802C351.001 251.679 351.149 251.587 351.312 251.535C351.474 251.482 351.647 251.471 351.815 251.5C351.983 251.53 352.142 251.6 352.278 251.706C355.408 254.134 365.493 262.469 363.833 267.801C362.964 270.593 359.043 272.149 352.179 272.427C351.982 272.434 351.794 272.512 351.649 272.648C351.504 272.784 351.412 272.968 351.39 273.167L347.804 304.35C347.774 304.613 347.649 304.855 347.455 305.031C347.26 305.207 347.009 305.304 346.748 305.304Z" fill="#68A6FF"/>
<path d="M502.9 175.017C491.703 177.206 481.143 181.955 472.022 188.904C471.56 187.657 470.691 186.609 469.56 185.935C468.787 185.448 467.944 185.089 467.061 184.869C466.258 184.661 465.486 185.157 464.777 185.871C463.962 186.787 463.278 187.816 462.746 188.926C450.509 180.396 431.946 174.953 431.946 174.953V173.248C431.961 172.845 432.001 172.445 432.067 172.048C432.13 171.59 432.209 171.184 432.308 170.689C433.883 162.554 440.109 143.965 440.109 143.965H447.149L460.798 146.844L476.153 145.889L491.619 142.622L493.624 142.195C496.968 144.861 500.763 163.519 502.254 171.462C502.443 172.469 502.59 173.301 502.701 173.914C502.832 174.607 502.9 175.017 502.9 175.017Z" fill="#97E6F8"/>
<path d="M460.895 256.908C460.895 256.908 457.625 257.738 452.554 271.686C447.482 285.634 445.686 303.655 445.686 303.655C445.686 303.655 442.834 308.559 455.006 308.887C455.006 308.887 454.027 312.126 460.895 311.628C467.762 311.131 466.774 311.136 466.774 311.136C466.774 311.136 471.189 308.313 473.152 308.81C475.115 309.307 476.341 309.476 478.465 311.3C480.59 313.125 487.381 312.381 487.462 310.972C487.517 310.28 487.517 309.584 487.462 308.892C487.462 308.892 497.847 309.558 495.884 301.918C493.921 294.278 492.286 281.739 492.286 281.739C492.286 281.739 486.973 257.246 480.918 256.913C474.863 256.58 460.895 256.908 460.895 256.908Z" fill="#97E6F8"/>
<path d="M125.216 233.395C135.986 233.395 144.716 224.529 144.716 213.593C144.716 202.657 135.986 193.791 125.216 193.791C114.447 193.791 105.716 202.657 105.716 213.593C105.716 224.529 114.447 233.395 125.216 233.395Z" fill="#00B0FF"/>
<path d="M126.854 233.433C135.671 233.433 142.819 226.174 142.819 217.221C142.819 208.267 135.671 201.009 126.854 201.009C118.037 201.009 110.889 208.267 110.889 217.221C110.889 226.174 118.037 233.433 126.854 233.433Z" fill="#FFB8B8"/>
<path d="M187.654 266.531C187.4 266.79 187.167 267.069 186.957 267.365L154.742 266.209L151.057 259.192L139.901 263.455L145.236 276.521C145.666 277.577 146.423 278.462 147.391 279.044C148.36 279.625 149.488 279.872 150.607 279.748L187.062 275.683C187.909 276.797 189.069 277.622 190.389 278.049C191.71 278.476 193.127 278.485 194.452 278.075C195.777 277.664 196.948 276.854 197.809 275.751C198.669 274.649 199.179 273.306 199.27 271.902C199.361 270.498 199.029 269.099 198.317 267.892C197.606 266.684 196.55 265.725 195.289 265.142C194.028 264.559 192.622 264.379 191.258 264.627C189.894 264.876 188.637 265.539 187.654 266.531H187.654Z" fill="#FFB8B8"/>
<path d="M135.61 269.764C135.2 269.577 134.834 269.302 134.537 268.959C134.241 268.615 134.021 268.21 133.893 267.772L129.405 252.479C128.431 250.362 128.323 247.938 129.106 245.739C129.889 243.541 131.498 241.748 133.581 240.752C135.664 239.757 138.05 239.641 140.217 240.43C142.384 241.219 144.155 242.848 145.141 244.96L153.833 258.317C154.081 258.698 154.245 259.129 154.314 259.58C154.383 260.032 154.356 260.493 154.234 260.933C154.112 261.372 153.898 261.78 153.606 262.128C153.315 262.476 152.953 262.757 152.545 262.95L138.218 269.744C137.81 269.938 137.366 270.04 136.916 270.043C136.466 270.047 136.021 269.951 135.61 269.764Z" fill="#97E6F8"/>
<path d="M167.34 425.031L174.339 421.162L162.974 391.907L152.644 397.617L167.34 425.031Z" fill="#FFB8B8"/>
<path d="M164.311 423.697L178.094 416.078L178.095 416.078C179.248 415.44 180.514 415.039 181.82 414.898C183.126 414.758 184.447 414.879 185.707 415.257C186.966 415.634 188.141 416.26 189.162 417.098C190.184 417.936 191.033 418.971 191.66 420.142L191.816 420.432L169.248 432.907L164.311 423.697Z" fill="#00B0FF"/>
<path d="M90.3233 425.063H98.2917L102.083 393.85L90.3214 393.85L90.3233 425.063Z" fill="#FFB8B8"/>
<path d="M88.2903 422.421L103.984 422.42H103.984C105.298 422.42 106.598 422.683 107.812 423.193C109.025 423.704 110.128 424.452 111.056 425.395C111.985 426.338 112.722 427.458 113.224 428.69C113.727 429.922 113.986 431.243 113.986 432.576V432.906L88.2908 432.907L88.2903 422.421Z" fill="#00B0FF"/>
<path d="M139.841 286.53L142.441 318.213L171.443 406.566C171.557 406.913 171.599 407.281 171.565 407.646C171.532 408.01 171.424 408.364 171.249 408.684C171.073 409.004 170.834 409.284 170.547 409.505C170.259 409.726 169.93 409.884 169.579 409.969L160.69 412.118C160.121 412.256 159.523 412.194 158.992 411.944C158.461 411.694 158.03 411.269 157.766 410.738L120.688 336.051C120.567 335.807 120.375 335.608 120.138 335.479C119.901 335.351 119.63 335.301 119.364 335.335C119.098 335.369 118.848 335.486 118.65 335.67C118.452 335.854 118.315 336.095 118.257 336.362L101.94 411.847C101.812 412.435 101.491 412.961 101.029 413.339C100.568 413.716 99.9927 413.922 99.3999 413.922H91.1308C90.7863 413.922 90.4453 413.853 90.1275 413.718C89.8097 413.583 89.5215 413.385 89.2797 413.136C89.0379 412.887 88.8474 412.592 88.7192 412.267C88.591 411.943 88.5277 411.595 88.533 411.246C89.2907 358.905 86.791 299.264 106.691 289.83L109.941 281.249L139.841 286.53Z" fill="#00B0FF"/>
<path d="M109.005 283.496L105.654 262.917C105.099 259.542 105.39 256.08 106.5 252.849C107.61 249.619 109.502 246.724 112.004 244.432C114.449 242.161 117.417 240.553 120.635 239.754C123.854 238.955 127.218 238.992 130.419 239.861C130.609 239.912 130.799 239.966 130.989 240.02C134.928 241.165 138.425 243.51 141.008 246.738C143.592 249.966 145.138 253.921 145.437 258.07C146.077 267.007 145.505 279.973 139.146 290.987L139.023 291.201L109.005 283.496Z" fill="#97E6F8"/>
<path d="M142.735 208.604C139.087 211.158 134.757 212.517 130.327 212.499C131.907 213.612 133.706 214.363 135.6 214.702C129.709 215.985 123.621 216.02 117.716 214.804C116.404 214.59 115.137 214.149 113.972 213.498C113.392 213.169 112.886 212.72 112.488 212.179C112.09 211.638 111.808 211.018 111.662 210.36C111.269 208.084 113.016 206.016 114.831 204.622C117.61 202.521 120.814 201.073 124.212 200.383C127.61 199.694 131.116 199.78 134.477 200.635C136.671 201.211 138.87 202.185 140.295 203.974C141.721 205.764 142.143 208.523 140.785 210.366L142.735 208.604Z" fill="#00B0FF"/>
<path d="M124.959 193.693C126.81 186.106 120.177 177.675 112.481 177.833C104.672 177.993 98.9258 185.159 94.9757 192.001C91.0257 198.843 87.1 206.599 79.8484 209.545C77.4487 210.52 74.8483 210.875 72.2803 210.578C69.7124 210.281 67.2571 209.341 65.1347 207.844C63.0123 206.346 61.289 204.337 60.1195 201.996C58.9499 199.656 58.3706 197.057 58.4335 194.433C57.4598 202.746 58.8087 211.739 64.0877 218.169C69.3666 224.598 79.1893 227.496 86.2496 223.175C90.2819 220.707 92.8593 216.418 94.9842 212.151C97.109 207.885 98.9998 203.387 102.219 199.898C105.439 196.41 110.417 194.095 114.898 195.563C116.677 196.145 118.272 197.281 120.11 197.626C121.947 197.972 124.261 197.085 124.512 195.204L124.959 193.693Z" fill="#00B0FF"/>
<path d="M86.4816 331.278C85.819 330.49 85.3347 329.563 85.0628 328.564C84.791 327.565 84.7382 326.517 84.9081 325.495C85.0781 324.473 85.4667 323.501 86.0465 322.648C86.6264 321.795 87.3834 321.081 88.2643 320.557L102.113 257.523L116.161 263.378L98.1309 323.498C98.8995 325.059 99.0776 326.852 98.6313 328.537C98.185 330.223 97.1454 331.683 95.7095 332.642C94.2736 333.601 92.5411 333.992 90.8404 333.741C89.1396 333.489 87.5887 332.613 86.4816 331.278H86.4816Z" fill="#FFB8B8"/>
<path d="M96.6258 266.566C96.4047 266.168 96.2706 265.726 96.2329 265.271C96.1951 264.816 96.2546 264.358 96.4071 263.928L101.732 248.915C102.186 246.623 103.515 244.607 105.43 243.309C107.345 242.011 109.688 241.537 111.946 241.992C114.205 242.446 116.193 243.79 117.477 245.731C118.76 247.672 119.233 250.05 118.792 252.345L117.983 268.333C117.96 268.789 117.84 269.235 117.632 269.64C117.424 270.045 117.132 270.4 116.777 270.68C116.421 270.961 116.011 271.16 115.573 271.265C115.135 271.369 114.68 271.377 114.239 271.287L98.7359 268.121C98.2947 268.032 97.8778 267.846 97.5136 267.578C97.1495 267.309 96.8467 266.964 96.6258 266.566Z" fill="#97E6F8"/>
<path d="M210.09 259.497L209.859 259.464L210.728 253.047C210.861 252.062 210.603 251.063 210.012 250.271C209.42 249.478 208.543 248.957 207.573 248.822L194.183 246.953C193.213 246.817 192.229 247.079 191.449 247.68C190.669 248.28 190.156 249.171 190.022 250.157L185.256 285.365C185.123 286.35 185.38 287.348 185.972 288.141C186.564 288.933 187.441 289.454 188.411 289.59L201.801 291.459C202.771 291.594 203.754 291.333 204.535 290.732C205.315 290.131 205.828 289.24 205.961 288.255L209.24 264.033L209.471 264.065L210.09 259.497Z" fill="#68A6FF"/>
<path d="M207.152 250.705L205.485 250.472C205.536 250.674 205.537 250.885 205.488 251.087C205.44 251.289 205.343 251.476 205.207 251.631C205.07 251.787 204.898 251.905 204.706 251.977C204.514 252.049 204.307 252.072 204.104 252.044L196.787 251.022C196.584 250.994 196.391 250.915 196.225 250.793C196.059 250.671 195.925 250.51 195.835 250.323C195.745 250.136 195.702 249.93 195.709 249.722C195.716 249.514 195.773 249.311 195.876 249.131L194.319 248.913C193.976 248.865 193.628 248.887 193.294 248.975C192.96 249.064 192.646 249.219 192.371 249.431C192.096 249.643 191.865 249.908 191.69 250.211C191.516 250.513 191.402 250.848 191.355 251.195L186.815 284.729C186.768 285.077 186.789 285.43 186.877 285.77C186.964 286.109 187.117 286.427 187.325 286.707C187.534 286.986 187.795 287.221 188.093 287.398C188.391 287.575 188.721 287.691 189.063 287.739L201.896 289.53C202.587 289.627 203.287 289.441 203.843 289.013C204.399 288.585 204.765 287.95 204.86 287.248L209.399 253.714C209.494 253.012 209.311 252.301 208.889 251.737C208.468 251.172 207.843 250.801 207.152 250.705L207.152 250.705Z" fill="#97E6F8"/>
<path d="M198.05 278.546C201.999 278.546 205.2 275.295 205.2 271.285C205.2 267.275 201.999 264.024 198.05 264.024C194.101 264.024 190.9 267.275 190.9 271.285C190.9 275.295 194.101 278.546 198.05 278.546Z" fill="#00B0FF"/>
<path d="M197.342 274.055C197.181 274.055 197.024 274.002 196.895 273.904L196.887 273.898L195.207 272.592C195.129 272.531 195.063 272.456 195.014 272.37C194.965 272.283 194.932 272.188 194.919 272.089C194.906 271.99 194.913 271.89 194.938 271.794C194.963 271.697 195.007 271.607 195.067 271.528C195.126 271.448 195.201 271.382 195.286 271.332C195.371 271.282 195.465 271.25 195.562 271.237C195.66 271.224 195.759 271.231 195.854 271.257C195.948 271.283 196.037 271.327 196.115 271.388L197.203 272.236L199.775 268.83C199.835 268.751 199.91 268.684 199.994 268.635C200.079 268.585 200.173 268.552 200.27 268.539C200.367 268.526 200.466 268.533 200.561 268.559C200.656 268.584 200.744 268.629 200.822 268.689L200.806 268.711L200.823 268.69C200.979 268.812 201.082 268.993 201.108 269.192C201.134 269.391 201.081 269.593 200.961 269.753L197.935 273.759C197.865 273.851 197.775 273.926 197.672 273.977C197.569 274.029 197.456 274.055 197.342 274.055Z" fill="#97E6F8"/>
<path d="M263.948 433H16.2986C16.1262 433 15.9609 432.93 15.839 432.807C15.7171 432.683 15.6486 432.515 15.6486 432.34C15.6486 432.165 15.7171 431.997 15.839 431.873C15.9609 431.749 16.1262 431.68 16.2986 431.68H263.948C264.121 431.68 264.286 431.749 264.408 431.873C264.53 431.997 264.598 432.165 264.598 432.34C264.598 432.515 264.53 432.683 264.408 432.807C264.286 432.93 264.121 433 263.948 433Z" fill="#68A6FF"/>
</g>
<defs>
<clipPath id="clip0_34_67">
<rect width="551" height="433" fill="white"/>
</clipPath>
</defs>
</svg>
